#!OML:ASF I:\Actors\actors\Patient Classification 2\Patient 1\Session 1\actor1.ASF
:FULLY-SPECIFIED
:DEGREES
617
root -1.01938 18.1697 5.80423 -1.21496 1.6205 -4.95929
lowerback 4.09233 1.63737 3.57311
upperback 1.59477 2.33535 1.74785
thorax -0.584359 1.17347 -0.311458
lowerneck -8.29594 3.75268 1.19355
upperneck 33.9437 10.1791 -13.6805
head 13.781 3.04105 -4.25209
rclavicle 1.05449e-014 -4.82053e-015
rhumerus -11.5588 45.7838 -79.0511
rradius 108.898
rwrist -0.708674
rhand -27.3912 -37.9696
rfingers 7.12502
rthumb -0.797919 -427.948
lclavicle 1.05449e-014 -4.82053e-015
lhumerus -19.5575 -19.1056 100.203
lradius 97.8632
lwrist 79.6207
lhand -16.6235 -12.7305
lfingers 7.12502
lthumb 9.59862 17.0309
rfemur 0 0 0
rtibia 0
rfoot 0 0
rtoes 0
lfemur 18.8685 -6.1417 -11.8556
ltibia -19.9687
lfoot -1.09706 18.8628
ltoes -13.6953
618
root -1.01944 18.1694 5.80229 -1.2243 1.48289 -4.99532
lowerback 4.05888 1.65104 3.68488
upperback 1.6204 2.35494 1.73685
thorax -0.533609 1.18456 -0.384084
lowerneck -8.37373 3.71804 1.18927
upperneck 33.9932 10.1109 -13.6076
head 13.8067 3.01266 -4.23261
rclavicle -1.21383e-014 3.97569e-015
rhumerus -10.4371 46.7888 -78.3175
rradius 108.358
rwrist -0.800104
rhand -27.6026 -37.8773
rfingers 7.12502
rthumb -1.00208 -427.855
lclavicle -1.21383e-014 3.97569e-015
lhumerus -19.5279 -19.1251 100.189
lradius 97.854
lwrist 79.6451
lhand -16.5672 -12.6343
lfingers 7.12502
lthumb 9.65297 17.1245
rfemur 0 0 0
rtibia 0
rfoot 0 0
rtoes 0
lfemur 18.8896 -6.06136 -11.8203
ltibia -19.9307
lfoot -1.09502 18.9153
ltoes -13.9006
619
root -1.01997 18.1689 5.80045 -1.25074 1.39235 -4.98872
lowerback 4.09428 1.66414 3.74116
upperback 1.62047 2.37616 1.72173
thorax -0.549578 1.1951 -0.432946
lowerneck -8.38138 3.6897 1.17777
upperneck 33.9661 10.0516 -13.5709
head 13.7854 2.98978 -4.22209
rclavicle -1.62165e-014 1.14301e-015
rhumerus -9.46939 47.6414 -77.6828
rradius 107.859
rwrist -0.877228
rhand -27.8171 -37.745
rfingers 7.12502
rthumb -1.20927 -427.721
lclavicle -1.62165e-014 1.14301e-015
lhumerus -19.5502 -19.1766 100.224
lradius 97.8778
lwrist 79.6241
lhand -16.4666 -12.5628
lfingers 7.12502
lthumb 9.74997 17.1915
rfemur 0 0 0
rtibia 0
rfoot 0 0
rtoes 0
lfemur 18.93 -6.06075 -11.8379
ltibia -19.9086
lfoot -1.1357 18.9774
ltoes -13.7116
620
root -1.02093 18.1694 5.79803 -1.28164 1.33696 -4.92921
lowerback 4.14465 1.68836 3.74269
upperback 1.62349 2.41061 1.68652
thorax -0.571818 1.21207 -0.472952
lowerneck -8.35476 3.65563 1.19326
upperneck 33.9018 9.97607 -13.5491
head 13.7397 2.96495 -4.2233
rclavicle 1.46479e-014 6.48535e-015
rhumerus -8.59081 48.1997 -77.1013
rradius 107.434
rwrist -0.990766
rhand -27.6182 -37.7972
rfingers 7.12502
rthumb -1.01715 -427.775
lclavicle 1.46479e-014 6.48535e-015
lhumerus -19.5314 -19.2923 100.281
lradius 97.9154
lwrist 79.5871
lhand -16.5605 -12.603
lfingers 7.12502
lthumb 9.65936 17.1556
rfemur 0 0 0
rtibia 0
rfoot 0 0
rtoes 0
lfemur 18.9612 -6.07755 -11.9135
ltibia -19.8894
lfoot -1.14028 19.0241
ltoes -13.6392
621
root -1.02188 18.1702 5.79527 -1.28171 1.3128 -4.9062
lowerback 4.14079 1.71438 3.81155
upperback 1.6381 2.44656 1.63016
thorax -0.547912 1.23089 -0.570023
lowerneck -8.39673 3.63801 1.20481
upperneck 33.9018 9.90603 -13.4292
head 13.7313 2.9478 -4.18462
rclavicle -3.59583e-014 -2.2239e-014
rhumerus -7.98201 48.4291 -76.7759
rradius 107.03
rwrist -0.964253
rhand -27.4579 -37.7512
rfingers 7.12502
rthumb -0.862389 -427.729
lclavicle -3.59583e-014 -2.2239e-014
lhumerus -19.4699 -19.4677 100.277
lradius 97.9528
lwrist 79.6485
lhand -16.5759 -12.7097
lfingers 7.12502
lthumb 9.64454 17.0495
rfemur 0 0 0
rtibia 0
rfoot 0 0
rtoes 0
lfemur 18.9411 -6.07567 -11.9371
ltibia -19.8755
lfoot -1.12678 19.0487
ltoes -13.6845
622
root -1.02303 18.1702 5.79261 -1.28202 1.30502 -4.93555
lowerback 4.15338 1.74214 3.88296
upperback 1.63573 2.48678 1.60842
thorax -0.551756 1.25116 -0.63416
lowerneck -8.44633 3.63278 1.18927
upperneck 33.9279 9.8634 -13.3004
head 13.738 2.93912 -4.13475
rclavicle 1.04688e-014 -3.23025e-016
rhumerus -7.71808 48.3892 -76.7028
rradius 106.693
rwrist -0.866678
rhand -27.5435 -37.6494
rfingers 7.12502
rthumb -0.945063 -427.627
lclavicle 1.04688e-014 -3.23025e-016
lhumerus -19.4341 -19.6213 100.285
lradius 97.9722
lwrist 79.6997
lhand -16.5143 -12.7461
lfingers 7.12502
lthumb 9.70397 17.0103
rfemur 0 0 0
rtibia 0
rfoot 0 0
rtoes 0
lfemur 18.9257 -6.088 -11.901
ltibia -19.8728
lfoot -1.14411 19.0836
ltoes -13.5549
623
root -1.02513 18.1714 5.79048 -1.29489 1.29908 -4.9434
lowerback 4.19108 1.77383 3.86524
upperback 1.62804 2.5307 1.61884
thorax -0.580262 1.27247 -0.616962
lowerneck -8.49614 3.62575 1.18415
upperneck 33.9529 9.85357 -13.2765
head 13.7574 2.9343 -4.12589
rclavicle 6.00376e-014 3.80673e-014
rhumerus -7.5957 48.0913 -76.7089
rradius 106.472
rwrist -0.903719
rhand -27.4988 -37.7342
rfingers 7.12502
rthumb -0.901829 -427.712
lclavicle 6.00376e-014 3.80673e-014
lhumerus -19.4112 -19.6943 100.337
lradius 98.0006
lwrist 79.7057
lhand -16.5205 -12.6912
lfingers 7.12502
lthumb 9.69802 17.0655
rfemur 0 0 0
rtibia 0
rfoot 0 0
rtoes 0
lfemur 18.9464 -6.13691 -11.8915
ltibia -19.8769
lfoot -1.19926 19.1497
ltoes -13.2485
624
root -1.0277 18.1725 5.78853 -1.30419 1.33503 -4.92913
lowerback 4.60721 1.84986 4.05639
upperback 1.36893 2.67007 1.47976
thorax -1.05809 1.33137 -0.893508
lowerneck -8.30915 3.57989 1.1884
upperneck 34.1011 9.74874 -13.109
head 13.7569 2.91207 -4.08248
rclavicle 1.46992e-015 3.59987e-014
rhumerus -8.36269 47.3345 -77.4558
rradius 106.393
rwrist -0.905648
rhand -27.4309 -37.9957
rfingers 7.12502
rthumb -0.836276 -427.974
lclavicle 1.46992e-015 3.59987e-014
lhumerus -19.8109 -19.9823 100.435
lradius 98.058
lwrist 79.7229
lhand -16.4172 -12.7806
lfingers 7.12502
lthumb 9.79761 16.9715
rfemur 0 0 0
rtibia 0
rfoot 0 0
rtoes 0
lfemur 18.9585 -6.19722 -11.9053
ltibia -19.8933
lfoot -1.21367 19.1967
ltoes -13.0964
625
root -1.02912 18.1714 5.78658 -1.33442 1.48148 -4.93243
lowerback 4.77736 1.86313 4.09844
upperback 1.27903 2.70222 1.46948
thorax -1.24172 1.34297 -0.93769
lowerneck -8.18909 3.57924 1.12854
upperneck 34.107 9.74193 -13.052
head 13.7246 2.91445 -4.05039
rclavicle 1.25444e-014 -1.22625e-014
rhumerus -8.93767 46.5179 -77.8719
rradius 106.412
rwrist -0.916442
rhand -27.4346 -38.2282
rfingers 7.12502
rthumb -0.839856 -428.206
lclavicle 1.25444e-014 -1.22625e-014
lhumerus -19.9217 -20.1212 100.538
lradius 98.0554
lwrist 79.6787
lhand -16.3129 -12.9155
lfingers 7.12502
lthumb 9.89827 16.8318
rfemur 0 0 0
rtibia 0
rfoot 0 0
rtoes 0
lfemur 18.9656 -6.33478 -11.908
ltibia -19.9312
lfoot -1.17572 19.2164
ltoes -12.9771
626
root -1.03062 18.1703 5.7854 -1.36686 1.70425 -4.96032
lowerback 4.79516 1.846 4.11372
upperback 1.28074 2.68163 1.49727
thorax -1.25148 1.33253 -0.917258
lowerneck -8.13533 3.58482 1.0839
upperneck 34.1038 9.74632 -13.0101
head 13.7063 2.91934 -4.02443
rclavicle 5.57199e-015 2.75814e-015
rhumerus -9.45437 45.635 -78.156
rradius 106.516
rwrist -0.984255
rhand -27.5201 -38.4386
rfingers 7.12502
rthumb -0.922386 -428.416
lclavicle 5.57199e-015 2.75814e-015
lhumerus -19.8918 -20.206 100.604
lradius 98.0679
lwrist 79.6013
lhand -16.326 -12.8617
lfingers 7.12502
lthumb 9.8856 16.8862
rfemur 0 0 0
rtibia 0
rfoot 0 0
rtoes 0
lfemur 18.9538 -6.38766 -11.858
ltibia -19.9871
lfoot -1.04535 19.0704
ltoes -13.0868
627
root -1.03452 18.1702 5.78478 -1.37807 1.89888 -5.01641
lowerback 4.76961 1.84441 4.15708
upperback 1.29019 2.68007 1.50912
thorax -1.22609 1.3323 -0.927944
lowerneck -8.11238 3.59128 1.1058
upperneck 34.0961 9.77022 -13.0577
head 13.7051 2.92977 -4.0444
rclavicle -8.08029e-015 1.94436e-014
rhumerus -10.0126 44.735 -78.508
rradius 106.688
rwrist -1.04194
rhand -27.7052 -38.627
rfingers 7.12502
rthumb -1.1012 -428.604
lclavicle -8.08029e-015 1.94436e-014
lhumerus -19.87 -20.2715 100.623
lradius 98.1403
lwrist 79.5899
lhand -16.2982 -12.6749
lfingers 7.12502
lthumb 9.91248 17.0717
rfemur 0 0 0
rtibia 0
rfoot 0 0
rtoes 0
lfemur 18.9241 -6.2975 -11.7461
ltibia -20.0491
lfoot -0.887364 18.8097
ltoes -13.4484
